<svg id="svg" version="1.1" xmlns="http://www.w3.org/2000/svg" xmlns:xlink="http://www.w3.org/1999/xlink" width="400" height="400" viewBox="0, 0, 400,400"><g id="svgg"><path id="path0" d="M0.480 0.480 C -0.273 1.233,-0.213 199.726,0.541 200.351 C 0.938 200.681,27.444 200.773,100.441 200.700 L 199.800 200.600 199.800 100.400 L 199.800 0.200 100.380 0.100 C 23.485 0.023,0.851 0.109,0.480 0.480 " stroke="none" fill="#3c7c8c" fill-rule="evenodd"></path><path id="path1" d="M0.000 299.951 L 0.000 400.000 100.000 400.000 L 200.000 400.000 200.000 300.300 L 200.000 200.600 100.542 200.701 C 27.373 200.775,0.940 200.682,0.542 200.352 C 0.086 199.974,0.000 215.843,0.000 299.951 " stroke="none" fill="#bcbcac" fill-rule="evenodd"></path><path id="path2" d="M200.800 100.195 L 200.800 200.391 300.400 200.398 L 400.000 200.405 400.000 100.202 L 400.000 0.000 300.400 0.000 L 200.800 0.000 200.800 100.195 " stroke="none" fill="#f3cb1c" fill-rule="evenodd"></path><path id="path3" d="M200.567 200.767 C 200.475 200.858,200.400 245.723,200.400 300.467 L 200.400 400.000 300.200 400.000 L 400.000 400.000 400.000 300.300 L 400.000 200.600 300.367 200.600 C 245.568 200.600,200.658 200.675,200.567 200.767 " stroke="none" fill="#d48c2b" fill-rule="evenodd"></path><path id="path4" d="M200.300 0.233 C 200.135 0.398,200.030 90.458,200.067 200.367 L 200.134 400.200 200.458 260.000 C 200.819 104.070,200.756 -0.222,200.300 0.233 M252.268 200.700 C 278.705 200.757,322.085 200.757,348.668 200.700 C 375.251 200.643,353.620 200.597,300.600 200.597 C 247.580 200.597,225.831 200.643,252.268 200.700 " stroke="none" fill="#c4b434" fill-rule="evenodd"></path></g></svg>